<?xml version="1.0" encoding="UTF-8"?><svg version="1.1" width="612px" height="792px" viewBox="0 0 612 792" xmlns="http://www.w3.org/2000/svg" xmlns:xlink="http://www.w3.org/1999/xlink" xmlns:cs="svg" xml:space="preserve"><style type="text/css">.ps04{fill-opacity:0.549;stroke-opacity:0.549;fill:#858B92}.ps02{fill:#4A4A4A}.ps03{fill:#FEFDFD}.ps01{fill:#FFFFFF}.ps00{fill:none}.ps21{letter-spacing:0;word-spacing:0;font-family:Century Gothic;font-size:11px}.ps20{letter-spacing:0;word-spacing:0;font-family:Century Gothic;font-size:40px}.ps22{letter-spacing:0;word-spacing:0;font-family:Century Gothic;font-size:11px;font-weight:600;}.ps23{letter-spacing:0;word-spacing:0;font-family:Century Gothic;font-size:12px;font-weight:600;}</style><clipPath id="clp1"><rect width="612" height="792" /></clipPath><g clip-path="url(#clp1)" transform="matrix(1 0 0 -1 0 792)"><g><g transform="matrix(1.342 0 0 1.342 0 27)"><clipPath id="clp2"><rect width="459" height="549.9" /></clipPath><g clip-path="url(#clp2)"><g><g transform="matrix(0.745 0 0 -0.745 0 549.905)"><g><clipPath id="clp3"><path d="M0 0 L616.11 0 L616.11 736.92 L0 736.92 Z" /></clipPath><g clip-path="url(#clp3)"><g class="ps00"><path d="M0 0 L616.11 0 L616.11 736.92 L0 736.92 Z" class="ps01" /></g></g></g><g><clipPath id="clp4"><path d="M0 0 L612 0 L612 672 L0 672 Z" /></clipPath><g clip-path="url(#clp4)"><g class="ps00"><path d="M0 0 L612 0 L612 672 L0 672 Z" class="ps01" /></g></g></g><g><clipPath id="clp5"><path d="M0 0 L616.11 0 L616.11 736.92 L0 736.92 Z" /></clipPath><g clip-path="url(#clp5)"><g class="ps00"><clipPath id="clp6"><path d="M160 -2.999 L271 -2.999 L271 50 L160 50 Z" /></clipPath><g clip-path="url(#clp6)"><g class="ps00"><text transform="matrix(1 0 0 1 165.787 37)"><tspan class="ps02 ps20" xml:space="preserve">NEAL</tspan></text></g></g></g><g class="ps00"><clipPath id="clp7"><path d="M270 -2.999 L453 -2.999 L453 50 L270 50 Z" /></clipPath><g clip-path="url(#clp7)"><g class="ps00"><text transform="matrix(1 0 0 1 275.887 37)"><tspan class="ps02 ps20" xml:space="preserve">CAFFREY</tspan></text></g></g></g><g class="ps00"><clipPath id="clp8"><path d="M138 44.002 L281 44.002 L281 67.004 L138 67.004 Z" /></clipPath><g clip-path="url(#clp8)"><g class="ps00"><text transform="matrix(1 0 0 1 143.325 59.5)"><tspan class="ps02 ps21" xml:space="preserve">example@example.com</tspan></text></g></g></g><g class="ps00"><clipPath id="clp9"><path d="M269 44.002 L293 44.002 L293 67.004 L269 67.004 Z" /></clipPath><g clip-path="url(#clp9)"><g class="ps00"><text transform="matrix(1 0 0 1 274.737 59.5)"><tspan xml:space="preserve" class="ps02 ps21"> | </tspan></text></g></g></g><g class="ps00"><clipPath id="clp10"><path d="M283 44.002 L363 44.002 L363 67.004 L283 67.004 Z" /></clipPath><g clip-path="url(#clp10)"><g class="ps00"><text transform="matrix(1 0 0 1 288.125 59.5)"><tspan class="ps02 ps21" xml:space="preserve">555-555-5555</tspan></text></g></g></g><g class="ps00"><clipPath id="clp11"><path d="M351 44.002 L374 44.002 L374 67.004 L351 67.004 Z" /></clipPath><g clip-path="url(#clp11)"><g class="ps00"><text transform="matrix(1 0 0 1 356.424 59.5)"><tspan xml:space="preserve" class="ps02 ps21"> | </tspan></text></g></g></g><g class="ps00"><clipPath id="clp12"><path d="M364 44.002 L475 44.002 L475 67.004 L364 67.004 Z" /></clipPath><g clip-path="url(#clp12)"><g class="ps00"><text transform="matrix(1 0 0 1 369.812 59.5)"><tspan class="ps02 ps21" xml:space="preserve">Nashville, TN 37204</tspan></text></g></g></g><g class="ps00"><clipPath id="clp13"><path d="M57 105 L553 105 L553 128 L57 128 Z" /></clipPath><g clip-path="url(#clp13)"><g class="ps00"><text transform="matrix(1 0 0 1 62 120.5)"><tspan x="0,8.184,15.323,22.825,29.964,36.663,44.198,51.711,59.213,61.413" class="ps02 ps21" xml:space="preserve">Dependable Secretary with eight years of experience tackling wide range of clerical office</tspan></text></g></g></g><g class="ps00"><clipPath id="clp14"><path d="M57 120 L568 120 L568 143 L57 143 Z" /></clipPath><g clip-path="url(#clp14)"><g class="ps00"><text transform="matrix(1 0 0 1 62 135.5)"><tspan x="0,7.535,14.212,17.93,20.13,27.269,31.537,34.573,43.714,45.914,49.632,56.331,59.367,62.81,70.004,77.11,83.787" class="ps02 ps21" xml:space="preserve">duties with focus on client services. Supportive and focused team player always eager to help</tspan></text></g></g></g><g class="ps00"><clipPath id="clp15"><path d="M57 135 L577 135 L577 158 L57 158 Z" /></clipPath><g clip-path="url(#clp15)"><g class="ps00"><text transform="matrix(1 0 0 1 62 150.5)"><tspan class="ps02 ps21" xml:space="preserve">customers with routine and challenging needs while remaining professional. Well-organized and</tspan></text></g></g></g><g class="ps00"><clipPath id="clp16"><path d="M57 150 L463 150 L463 173 L57 173 Z" /></clipPath><g clip-path="url(#clp16)"><g class="ps00"><text transform="matrix(1 0 0 1 62 165.5)"><tspan class="ps02 ps21" xml:space="preserve">hardworking with adaptability and responsiveness for changing demands.</tspan></text></g></g></g><g class="ps00"><clipPath id="clp17"><path d="M32 211 L90.001 211 L90.001 234 L32 234 Z" /></clipPath><g clip-path="url(#clp17)"><g class="ps00"><text transform="matrix(1 0 0 1 37 226.5)"><tspan x="0,8.129,15.631,18.931,21.967,28.061,34.155,40.249" class="ps02 ps21">Apr 2018</tspan></text></g></g></g><g class="ps00"><clipPath id="clp18"><path d="M80.998 211 L97.001 211 L97.001 234 L80.998 234 Z" /></clipPath><g clip-path="url(#clp18)"><g class="ps00"><text transform="matrix(1 0 0 1 86.35 226.5)"><tspan xml:space="preserve" x="0,3.652" class="ps02 ps21">- </tspan></text></g></g></g><g class="ps00"><clipPath id="clp19"><path d="M87.998 211 L139 211 L139 234 L87.998 234 Z" /></clipPath><g clip-path="url(#clp19)"><g class="ps00"><text transform="matrix(1 0 0 1 93 226.5)"><tspan class="ps02 ps21" xml:space="preserve">Current</tspan></text></g></g></g><g class="ps00"><clipPath id="clp20"><path d="M32 226 L94.002 226 L94.002 249 L32 249 Z" /></clipPath><g clip-path="url(#clp20)"><g class="ps00"><text transform="matrix(1 0 0 1 37 241.5)"><tspan x="0,5.72,12.76" class="ps02 ps22" xml:space="preserve">Secretary</tspan></text></g></g></g><g class="ps00"><clipPath id="clp21"><path d="M32 241 L94.002 241 L94.002 264 L32 264 Z" /></clipPath><g clip-path="url(#clp21)"><g class="ps00"><text transform="matrix(1 0 0 1 37 256.5)"><tspan class="ps02 ps21" xml:space="preserve">Compass</tspan></text></g></g></g><g class="ps00"><clipPath id="clp22"><path d="M82 241 L101 241 L101 264 L82 264 Z" /></clipPath><g clip-path="url(#clp22)"><g class="ps00"><text transform="matrix(1 0 0 1 87.012 256.5)"><tspan xml:space="preserve" class="ps02 ps21"> - </tspan></text></g></g></g><g class="ps00"><clipPath id="clp23"><path d="M91.003 241 L150 241 L150 264 L91.003 264 Z" /></clipPath><g clip-path="url(#clp23)"><g class="ps00"><text transform="matrix(1 0 0 1 96.662 256.5)"><tspan class="ps02 ps21" xml:space="preserve">Nashville</tspan></text></g></g></g><g class="ps00"><clipPath id="clp24"><path d="M138 241 L154 241 L154 264 L138 264 Z" /></clipPath><g clip-path="url(#clp24)"><g class="ps00"><text transform="matrix(1 0 0 1 143.149 256.5)"><tspan class="ps02 ps21" xml:space="preserve">, </tspan></text></g></g></g><g class="ps00"><clipPath id="clp25"><path d="M144 241 L169 241 L169 264 L144 264 Z" /></clipPath><g clip-path="url(#clp25)"><g class="ps00"><text transform="matrix(1 0 0 1 149.2 256.5)"><tspan class="ps02 ps21" xml:space="preserve">TN</tspan></text></g></g></g><g class="ps00"><clipPath id="clp26"><path d="M265 211 L569 211 L569 234 L265 234 Z" /></clipPath><g clip-path="url(#clp26)"><g class="ps00"><text transform="matrix(1 0 0 1 270 226.5)"><tspan class="ps02 ps21" xml:space="preserve">Coordinate communications such as memos and calls,</tspan></text></g></g></g><g class="ps00"><clipPath id="clp27"><path d="M265 226 L511 226 L511 249 L265 249 Z" /></clipPath><g clip-path="url(#clp27)"><g class="ps00"><text transform="matrix(1 0 0 1 270 241.5)"><tspan x="0,3.3,10.439,14.707" class="ps02 ps21" xml:space="preserve">respond to emails and interface with clients.</tspan></text></g></g></g><g class="ps00"><clipPath id="clp28"><path d="M252 211 L270 211 L270 234 L252 234 Z" /></clipPath><g clip-path="url(#clp28)"><g class="ps00"><text transform="matrix(1 0 0 1 257 226.5)"><tspan class="ps02 ps21">•</tspan></text></g></g></g><g class="ps00"><clipPath id="clp29"><path d="M265 241 L567 241 L567 264 L265 264 Z" /></clipPath><g clip-path="url(#clp29)"><g class="ps00"><text transform="matrix(1 0 0 1 270 256.5)"><tspan x="0,9.559,17.061" class="ps02 ps21" xml:space="preserve">Open, sort and respond to routine correspondence on</tspan></text></g></g></g><g class="ps00"><clipPath id="clp30"><path d="M265 256 L416 256 L416 279 L265 279 Z" /></clipPath><g clip-path="url(#clp30)"><g class="ps00"><text transform="matrix(1 0 0 1 270 271.5)"><tspan x="0,7.502,14.641,21.34" class="ps02 ps21" xml:space="preserve">behalf of business leaders.</tspan></text></g></g></g><g class="ps00"><clipPath id="clp31"><path d="M252 241 L270 241 L270 264 L252 264 Z" /></clipPath><g clip-path="url(#clp31)"><g class="ps00"><text transform="matrix(1 0 0 1 257 256.5)"><tspan class="ps02 ps21">•</tspan></text></g></g></g><g class="ps00"><clipPath id="clp32"><path d="M265 271 L577 271 L577 294 L265 294 Z" /></clipPath><g clip-path="url(#clp32)"><g class="ps00"><text transform="matrix(1 0 0 1 270 286.5)"><tspan class="ps02 ps21" xml:space="preserve">Compose, proofread and distribute professional business</tspan></text></g></g></g><g class="ps00"><clipPath id="clp33"><path d="M265 286 L510 286 L510 309 L265 309 Z" /></clipPath><g clip-path="url(#clp33)"><g class="ps00"><text transform="matrix(1 0 0 1 270 301.5)"><tspan class="ps02 ps21" xml:space="preserve">correspondence to internal team members.</tspan></text></g></g></g><g class="ps00"><clipPath id="clp34"><path d="M252 271 L270 271 L270 294 L252 294 Z" /></clipPath><g clip-path="url(#clp34)"><g class="ps00"><text transform="matrix(1 0 0 1 257 286.5)"><tspan class="ps02 ps21">•</tspan></text></g></g></g><g class="ps00"><clipPath id="clp35"><path d="M32 311 L93 311 L93 334 L32 334 Z" /></clipPath><g clip-path="url(#clp35)"><g class="ps00"><text transform="matrix(1 0 0 1 37 326.5)"><tspan x="0,8.129" class="ps02 ps21" xml:space="preserve">Aug 2017</tspan></text></g></g></g><g class="ps00"><clipPath id="clp36"><path d="M83.997 311 L101 311 L101 334 L83.997 334 Z" /></clipPath><g clip-path="url(#clp36)"><g class="ps00"><text transform="matrix(1 0 0 1 89.625 326.5)"><tspan xml:space="preserve" x="0,3.652" class="ps02 ps21">- </tspan></text></g></g></g><g class="ps00"><clipPath id="clp37"><path d="M91.003 311 L150 311 L150 334 L91.003 334 Z" /></clipPath><g clip-path="url(#clp37)"><g class="ps00"><text transform="matrix(1 0 0 1 96.275 326.5)"><tspan x="0,5.324,12.463,19.965,23.001,29.095,35.189" class="ps02 ps21" xml:space="preserve">Feb 2018</tspan></text></g></g></g><g class="ps00"><clipPath id="clp38"><path d="M32 326 L144 326 L144 349 L32 349 Z" /></clipPath><g clip-path="url(#clp38)"><g class="ps00"><text transform="matrix(1 0 0 1 37 341.5)"><tspan x="0,9.229,12.298,15.367,17.996,25.036,32.076,35.145,41.525" class="ps02 ps22" xml:space="preserve">Office Receptionist</tspan></text></g></g></g><g class="ps00"><clipPath id="clp39"><path d="M32 341 L117 341 L117 364 L32 364 Z" /></clipPath><g clip-path="url(#clp39)"><g class="ps00"><text transform="matrix(1 0 0 1 37 356.5)"><tspan x="0,9.559,17.072" class="ps02 ps21" xml:space="preserve">OHM Advisors</tspan></text></g></g></g><g class="ps00"><clipPath id="clp40"><path d="M105 341 L124 341 L124 364 L105 364 Z" /></clipPath><g clip-path="url(#clp40)"><g class="ps00"><text transform="matrix(1 0 0 1 110.225 356.5)"><tspan xml:space="preserve" class="ps02 ps21"> - </tspan></text></g></g></g><g class="ps00"><clipPath id="clp41"><path d="M114 341 L173 341 L173 364 L114 364 Z" /></clipPath><g clip-path="url(#clp41)"><g class="ps00"><text transform="matrix(1 0 0 1 119.875 356.5)"><tspan class="ps02 ps21" xml:space="preserve">Nashville</tspan></text></g></g></g><g class="ps00"><clipPath id="clp42"><path d="M161 341 L177 341 L177 364 L161 364 Z" /></clipPath><g clip-path="url(#clp42)"><g class="ps00"><text transform="matrix(1 0 0 1 166.362 356.5)"><tspan class="ps02 ps21" xml:space="preserve">, </tspan></text></g></g></g><g class="ps00"><clipPath id="clp43"><path d="M167 341 L192 341 L192 364 L167 364 Z" /></clipPath><g clip-path="url(#clp43)"><g class="ps00"><text transform="matrix(1 0 0 1 172.412 356.5)"><tspan class="ps02 ps21" xml:space="preserve">TN</tspan></text></g></g></g><g class="ps00"><clipPath id="clp44"><path d="M265 311 L576 311 L576 334 L265 334 Z" /></clipPath><g clip-path="url(#clp44)"><g class="ps00"><text transform="matrix(1 0 0 1 270 326.5)"><tspan class="ps02 ps21" xml:space="preserve">Photocopied correspondence, documents, memos and</tspan></text></g></g></g><g class="ps00"><clipPath id="clp45"><path d="M265 326 L361 326 L361 349 L265 349 Z" /></clipPath><g clip-path="url(#clp45)"><g class="ps00"><text transform="matrix(1 0 0 1 270 341.5)"><tspan class="ps02 ps21" xml:space="preserve">create invoices.</tspan></text></g></g></g><g class="ps00"><clipPath id="clp46"><path d="M252 311 L270 311 L270 334 L252 334 Z" /></clipPath><g clip-path="url(#clp46)"><g class="ps00"><text transform="matrix(1 0 0 1 257 326.5)"><tspan class="ps02 ps21">•</tspan></text></g></g></g><g class="ps00"><clipPath id="clp47"><path d="M265 341 L572 341 L572 364 L265 364 Z" /></clipPath><g clip-path="url(#clp47)"><g class="ps00"><text transform="matrix(1 0 0 1 270 356.5)"><tspan x="0,8.129,12.397,16.665" class="ps02 ps21" xml:space="preserve">Assisted in preparation of newsletters for the local office</tspan></text></g></g></g><g class="ps00"><clipPath id="clp48"><path d="M265 356 L373 356 L373 379 L265 379 Z" /></clipPath><g clip-path="url(#clp48)"><g class="ps00"><text transform="matrix(1 0 0 1 270 371.5)"><tspan x="0,7.513" class="ps02 ps21" xml:space="preserve">and departments.</tspan></text></g></g></g><g class="ps00"><clipPath id="clp49"><path d="M252 341 L270 341 L270 364 L252 364 Z" /></clipPath><g clip-path="url(#clp49)"><g class="ps00"><text transform="matrix(1 0 0 1 257 356.5)"><tspan class="ps02 ps21">•</tspan></text></g></g></g><g class="ps00"><clipPath id="clp50"><path d="M265 371 L546 371 L546 394 L265 394 Z" /></clipPath><g clip-path="url(#clp50)"><g class="ps00"><text transform="matrix(1 0 0 1 270 386.5)"><tspan x="0,4.675,10.571,18.073,25.212,32.747,35.783,42.46" class="ps02 ps21" xml:space="preserve">Typed up to 70 words per minute for drafting office</tspan></text></g></g></g><g class="ps00"><clipPath id="clp51"><path d="M265 386 L338 386 L338 409 L265 409 Z" /></clipPath><g clip-path="url(#clp51)"><g class="ps00"><text transform="matrix(1 0 0 1 270 401.5)"><tspan class="ps02 ps21" xml:space="preserve">paperwork.</tspan></text></g></g></g><g class="ps00"><clipPath id="clp52"><path d="M252 371 L270 371 L270 394 L252 394 Z" /></clipPath><g clip-path="url(#clp52)"><g class="ps00"><text transform="matrix(1 0 0 1 257 386.5)"><tspan class="ps02 ps21">•</tspan></text></g></g></g><g class="ps00"><clipPath id="clp53"><path d="M32 411 L90.001 411 L90.001 434 L32 434 Z" /></clipPath><g clip-path="url(#clp53)"><g class="ps00"><text transform="matrix(1 0 0 1 37 426.5)"><tspan class="ps02 ps21" xml:space="preserve">Jun 2016</tspan></text></g></g></g><g class="ps00"><clipPath id="clp54"><path d="M80.998 411 L97.001 411 L97.001 434 L80.998 434 Z" /></clipPath><g clip-path="url(#clp54)"><g class="ps00"><text transform="matrix(1 0 0 1 86.1 426.5)"><tspan xml:space="preserve" x="0,3.652" class="ps02 ps21">- </tspan></text></g></g></g><g class="ps00"><clipPath id="clp55"><path d="M87.002 411 L149 411 L149 434 L87.002 434 Z" /></clipPath><g clip-path="url(#clp55)"><g class="ps00"><text transform="matrix(1 0 0 1 92.75 426.5)"><tspan x="0,8.129" class="ps02 ps21" xml:space="preserve">Aug 2017</tspan></text></g></g></g><g class="ps00"><clipPath id="clp56"><path d="M32 426 L163 426 L163 449 L32 449 Z" /></clipPath><g clip-path="url(#clp56)"><g class="ps00"><text transform="matrix(1 0 0 1 37 441.5)"><tspan class="ps02 ps22" xml:space="preserve">Coordinator's Assistant</tspan></text></g></g></g><g class="ps00"><clipPath id="clp57"><path d="M32 441 L156 441 L156 464 L32 464 Z" /></clipPath><g clip-path="url(#clp57)"><g class="ps00"><text transform="matrix(1 0 0 1 37 456.5)"><tspan x="0,4.675,11.374,18.513,21.549,31.141,37.037,46.596,49.632,59.224,62.524,69.718" class="ps02 ps21" xml:space="preserve">The GEO Group, INC.</tspan></text></g></g></g><g class="ps00"><clipPath id="clp58"><path d="M144 441 L164 441 L164 464 L144 464 Z" /></clipPath><g clip-path="url(#clp58)"><g class="ps00"><text transform="matrix(1 0 0 1 149.55 456.5)"><tspan xml:space="preserve" class="ps02 ps21"> - </tspan></text></g></g></g><g class="ps00"><clipPath id="clp59"><path d="M154 441 L212 441 L212 464 L154 464 Z" /></clipPath><g clip-path="url(#clp59)"><g class="ps00"><text transform="matrix(1 0 0 1 159.2 456.5)"><tspan class="ps02 ps21" xml:space="preserve">Nashville</tspan></text></g></g></g><g class="ps00"><clipPath id="clp60"><path d="M200 441 L216 441 L216 464 L200 464 Z" /></clipPath><g clip-path="url(#clp60)"><g class="ps00"><text transform="matrix(1 0 0 1 205.687 456.5)"><tspan class="ps02 ps21" xml:space="preserve">, </tspan></text></g></g></g><g class="ps00"><clipPath id="clp61"><path d="M206 441 L231 441 L231 464 L206 464 Z" /></clipPath><g clip-path="url(#clp61)"><g class="ps00"><text transform="matrix(1 0 0 1 211.737 456.5)"><tspan class="ps02 ps21" xml:space="preserve">TN</tspan></text></g></g></g><g class="ps00"><clipPath id="clp62"><path d="M265 411 L579 411 L579 434 L265 434 Z" /></clipPath><g clip-path="url(#clp62)"><g class="ps00"><text transform="matrix(1 0 0 1 270 426.5)"><tspan x="0,7.513,14.652,16.852,24.354,31.493,39.028,42.064,49.577" class="ps02 ps21" xml:space="preserve">Helped asses ongoing internal issues and provided timely</tspan></text></g></g></g><g class="ps00"><clipPath id="clp63"><path d="M265 426 L533 426 L533 449 L265 449 Z" /></clipPath><g clip-path="url(#clp63)"><g class="ps00"><text transform="matrix(1 0 0 1 270 441.5)"><tspan class="ps02 ps21" xml:space="preserve">feedback, responses, and support to managers.</tspan></text></g></g></g><g class="ps00"><clipPath id="clp64"><path d="M252 411 L270 411 L270 434 L252 434 Z" /></clipPath><g clip-path="url(#clp64)"><g class="ps00"><text transform="matrix(1 0 0 1 257 426.5)"><tspan class="ps02 ps21">•</tspan></text></g></g></g><g class="ps00"><clipPath id="clp65"><path d="M265 441 L581 441 L581 464 L265 464 Z" /></clipPath><g clip-path="url(#clp65)"><g class="ps00"><text transform="matrix(1 0 0 1 270 456.5)"><tspan x="0,5.896,10.164" class="ps02 ps21" xml:space="preserve">Established and maintained positive working relationships</tspan></text></g></g></g><g class="ps00"><clipPath id="clp66"><path d="M265 456 L459 456 L459 479 L265 479 Z" /></clipPath><g clip-path="url(#clp66)"><g class="ps00"><text transform="matrix(1 0 0 1 270 471.5)"><tspan x="0,9.141,11.341,15.059" class="ps02 ps21" xml:space="preserve">with suppliers through phone calls.</tspan></text></g></g></g><g class="ps00"><clipPath id="clp67"><path d="M252 441 L270 441 L270 464 L252 464 Z" /></clipPath><g clip-path="url(#clp67)"><g class="ps00"><text transform="matrix(1 0 0 1 257 456.5)"><tspan class="ps02 ps21">•</tspan></text></g></g></g><g class="ps00"><clipPath id="clp68"><path d="M265 471 L563 471 L563 494 L265 494 Z" /></clipPath><g clip-path="url(#clp68)"><g class="ps00"><text transform="matrix(1 0 0 1 270 486.5)"><tspan class="ps02 ps21" xml:space="preserve">Managed administrative processes and prepared key</tspan></text></g></g></g><g class="ps00"><clipPath id="clp69"><path d="M265 486 L428 486 L428 509 L265 509 Z" /></clipPath><g clip-path="url(#clp69)"><g class="ps00"><text transform="matrix(1 0 0 1 270 501.5)"><tspan class="ps02 ps21" xml:space="preserve">reports and documentation.</tspan></text></g></g></g><g class="ps00"><clipPath id="clp70"><path d="M252 471 L270 471 L270 494 L252 494 Z" /></clipPath><g clip-path="url(#clp70)"><g class="ps00"><text transform="matrix(1 0 0 1 257 486.5)"><tspan class="ps02 ps21">•</tspan></text></g></g></g><g transform="matrix(1 0 0 1 62 550.999)"><g class="ps00"><path d="M255.75 0.001 L256.5 0.001 L256.5 44.999 L255.75 44.999 Z" class="ps03" /></g><g transform="matrix(1 0 0 1 -62 -550.999)"><g class="ps00"><clipPath id="clp71"><path d="M69.998 547 L198 547 L198 570 L69.998 570 Z" /></clipPath><g clip-path="url(#clp71)"><g class="ps00"><text transform="matrix(1 0 0 1 75 562.5)"><tspan class="ps02 ps21" xml:space="preserve">Requisition processing</tspan></text></g></g></g><g class="ps00"><clipPath id="clp72"><path d="M57 547 L75 547 L75 570 L57 570 Z" /></clipPath><g clip-path="url(#clp72)"><g class="ps00"><text transform="matrix(1 0 0 1 62 562.5)"><tspan class="ps02 ps21">•</tspan></text></g></g></g><g class="ps00"><clipPath id="clp73"><path d="M69.998 562 L212 562 L212 585 L69.998 585 Z" /></clipPath><g clip-path="url(#clp73)"><g class="ps00"><text transform="matrix(1 0 0 1 75 577.5)"><tspan x="0,8.184" class="ps02 ps21" xml:space="preserve">Database management</tspan></text></g></g></g><g class="ps00"><clipPath id="clp74"><path d="M57 562 L75 562 L75 585 L57 585 Z" /></clipPath><g clip-path="url(#clp74)"><g class="ps00"><text transform="matrix(1 0 0 1 62 577.5)"><tspan class="ps02 ps21">•</tspan></text></g></g></g><g class="ps00"><clipPath id="clp75"><path d="M69.998 577 L183 577 L183 600 L69.998 600 Z" /></clipPath><g clip-path="url(#clp75)"><g class="ps00"><text transform="matrix(1 0 0 1 75 592.5)"><tspan x="0,5.896" class="ps02 ps21" xml:space="preserve">Event coordination</tspan></text></g></g></g><g class="ps00"><clipPath id="clp76"><path d="M57 577 L75 577 L75 600 L57 600 Z" /></clipPath><g clip-path="url(#clp76)"><g class="ps00"><text transform="matrix(1 0 0 1 62 592.5)"><tspan class="ps02 ps21">•</tspan></text></g></g></g><g class="ps00"><clipPath id="clp77"><path d="M326 547 L480 547 L480 570 L326 570 Z" /></clipPath><g clip-path="url(#clp77)"><g class="ps00"><text transform="matrix(1 0 0 1 331.5 562.5)"><tspan class="ps02 ps21" xml:space="preserve">Presentation development</tspan></text></g></g></g><g class="ps00"><clipPath id="clp78"><path d="M313 547 L332 547 L332 570 L313 570 Z" /></clipPath><g clip-path="url(#clp78)"><g class="ps00"><text transform="matrix(1 0 0 1 318.5 562.5)"><tspan class="ps02 ps21">•</tspan></text></g></g></g><g class="ps00"><clipPath id="clp79"><path d="M326 562 L407 562 L407 585 L326 585 Z" /></clipPath><g clip-path="url(#clp79)"><g class="ps00"><text transform="matrix(1 0 0 1 331.5 577.5)"><tspan class="ps02 ps21" xml:space="preserve">Organization</tspan></text></g></g></g><g class="ps00"><clipPath id="clp80"><path d="M313 562 L332 562 L332 585 L313 585 Z" /></clipPath><g clip-path="url(#clp80)"><g class="ps00"><text transform="matrix(1 0 0 1 318.5 577.5)"><tspan class="ps02 ps21">•</tspan></text></g></g></g><g class="ps00"><clipPath id="clp81"><path d="M326 577 L401 577 L401 600 L326 600 Z" /></clipPath><g clip-path="url(#clp81)"><g class="ps00"><text transform="matrix(1 0 0 1 331.5 592.5)"><tspan class="ps02 ps21" xml:space="preserve">Quickbooks</tspan></text></g></g></g><g class="ps00"><clipPath id="clp82"><path d="M313 577 L332 577 L332 600 L313 600 Z" /></clipPath><g clip-path="url(#clp82)"><g class="ps00"><text transform="matrix(1 0 0 1 318.5 592.5)"><tspan class="ps02 ps21">•</tspan></text></g></g></g><g class="ps00"><clipPath id="clp83"><path d="M57 638 L179 638 L179 661 L57 661 Z" /></clipPath><g clip-path="url(#clp83)"><g class="ps00"><text transform="matrix(1 0 0 1 62 653.5)"><tspan x="0,7.48" class="ps02 ps22" xml:space="preserve">High School Diploma</tspan></text></g></g></g><g class="ps00"><clipPath id="clp84"><path d="M57 653 L192 653 L192 676 L57 676 Z" /></clipPath><g clip-path="url(#clp84)"><g class="ps00"><text transform="matrix(1 0 0 1 62 668.5)"><tspan class="ps02 ps21" xml:space="preserve">Mcgavock High School</tspan></text></g></g></g><g class="ps00"><clipPath id="clp85"><path d="M180 653 L204 653 L204 676 L180 676 Z" /></clipPath><g clip-path="url(#clp85)"><g class="ps00"><text transform="matrix(1 0 0 1 185.8 668.5)"><tspan xml:space="preserve" class="ps02 ps21"> | </tspan></text></g></g></g><g class="ps00"><clipPath id="clp86"><path d="M194 653 L252 653 L252 676 L194 676 Z" /></clipPath><g clip-path="url(#clp86)"><g class="ps00"><text transform="matrix(1 0 0 1 199.187 668.5)"><tspan class="ps02 ps21" xml:space="preserve">Nashville</tspan></text></g></g></g><g class="ps00"><clipPath id="clp87"><path d="M240 653 L256 653 L256 676 L240 676 Z" /></clipPath><g clip-path="url(#clp87)"><g class="ps00"><text transform="matrix(1 0 0 1 245.675 668.5)"><tspan class="ps02 ps21" xml:space="preserve">, </tspan></text></g></g></g><g class="ps00"><clipPath id="clp88"><path d="M246 653 L271 653 L271 676 L246 676 Z" /></clipPath><g clip-path="url(#clp88)"><g class="ps00"><text transform="matrix(1 0 0 1 251.725 668.5)"><tspan class="ps02 ps21" xml:space="preserve">TN</tspan></text></g></g></g></g></g></g></g><g><clipPath id="clp89"><path d="M26.998 83.001 L585 83.001 L585 99.004 L26.998 99.004 Z" /></clipPath><g clip-path="url(#clp89)"><g class="ps00"><path d="M26.998 83.001 L585 83.001 L585 99.004 L26.998 99.004 Z" class="ps04" /></g></g></g><g><clipPath id="clp90"><path d="M0 0 L616.11 0 L616.11 736.92 L0 736.92 Z" /></clipPath><g clip-path="url(#clp90)"><g class="ps00"><clipPath id="clp91"><path d="M32 79.001 L200 79.001 L200 103 L32 103 Z" /></clipPath><g clip-path="url(#clp91)"><g class="ps00"><text transform="matrix(1 0 0 1 37 95.5)"><tspan class="ps02 ps23" xml:space="preserve">PROFESSIONAL SUMMARY</tspan></text></g></g></g></g></g><g><clipPath id="clp92"><path d="M26.998 189 L585 189 L585 205 L26.998 205 Z" /></clipPath><g clip-path="url(#clp92)"><g class="ps00"><path d="M26.998 189 L585 189 L585 205 L26.998 205 Z" class="ps04" /></g></g></g><g><clipPath id="clp93"><path d="M0 0 L616.11 0 L616.11 736.92 L0 736.92 Z" /></clipPath><g clip-path="url(#clp93)"><g class="ps00"><clipPath id="clp94"><path d="M32 185 L135 185 L135 209 L32 209 Z" /></clipPath><g clip-path="url(#clp94)"><g class="ps00"><text transform="matrix(1 0 0 1 37 201.5)"><tspan class="ps02 ps23" xml:space="preserve">WORK HISTORY</tspan></text></g></g></g></g></g><g><clipPath id="clp95"><path d="M26.998 525 L585 525 L585 541 L26.998 541 Z" /></clipPath><g clip-path="url(#clp95)"><g class="ps00"><path d="M26.998 525 L585 525 L585 541 L26.998 541 Z" class="ps04" /></g></g></g><g><clipPath id="clp96"><path d="M0 0 L616.11 0 L616.11 736.92 L0 736.92 Z" /></clipPath><g clip-path="url(#clp96)"><g class="ps00"><clipPath id="clp97"><path d="M32 521 L80.002 521 L80.002 545 L32 545 Z" /></clipPath><g clip-path="url(#clp97)"><g class="ps00"><text transform="matrix(1 0 0 1 37 537.5)"><tspan class="ps02 ps23" xml:space="preserve">SKILLS</tspan></text></g></g></g></g></g><g><clipPath id="clp98"><path d="M26.998 616 L585 616 L585 632.01 L26.998 632.01 Z" /></clipPath><g clip-path="url(#clp98)"><g class="ps00"><path d="M26.998 616 L585 616 L585 632.01 L26.998 632.01 Z" class="ps04" /></g></g></g><g><clipPath id="clp99"><path d="M0 0 L616.11 0 L616.11 736.92 L0 736.92 Z" /></clipPath><g clip-path="url(#clp99)"><g class="ps00"><clipPath id="clp100"><path d="M32 612 L116 612 L116 636 L32 636 Z" /></clipPath><g clip-path="url(#clp100)"><g class="ps00"><text transform="matrix(1 0 0 1 37 628.5)"><tspan class="ps02 ps23" xml:space="preserve">EDUCATION</tspan></text></g></g></g></g></g></g></g></g></g></g></g></svg>